<svg width="200" height="200" viewBox="0 0 200 200" fill="none" xmlns="http://www.w3.org/2000/svg">
<rect width="200" height="200" rx="40" fill="white"/>
<path fill-rule="evenodd" clip-rule="evenodd" d="M88.1251 64.375H111.875V56.4583C111.875 50.1953 113.732 44.0728 117.212 38.8653C120.691 33.6577 125.637 29.5989 131.423 27.2022C137.21 24.8054 143.577 24.1783 149.72 25.4001C155.862 26.622 161.505 29.638 165.933 34.0666C170.362 38.4953 173.378 44.1377 174.6 50.2805C175.822 56.4232 175.195 62.7903 172.798 68.5766C170.401 74.363 166.342 79.3086 161.135 82.7882C155.927 86.2678 149.805 88.125 143.542 88.125H135.625V111.875H143.542C149.805 111.875 155.927 113.732 161.135 117.212C166.342 120.691 170.401 125.637 172.798 131.423C175.195 137.21 175.822 143.577 174.6 149.72C173.378 155.862 170.362 161.505 165.933 165.933C161.505 170.362 155.862 173.378 149.72 174.6C143.577 175.822 137.21 175.195 131.423 172.798C125.637 170.401 120.691 166.342 117.212 161.135C113.732 155.927 111.875 149.805 111.875 143.542V135.625H88.1251V143.542C88.1251 149.805 86.2679 155.927 82.7883 161.135C79.3087 166.342 74.3631 170.401 68.5767 172.798C62.7904 175.195 56.4233 175.822 50.2806 174.6C44.1378 173.378 38.4954 170.362 34.0667 165.933C29.6381 161.505 26.6221 155.862 25.4002 149.72C24.1784 143.577 24.8055 137.21 27.2022 131.423C29.599 125.637 33.6578 120.691 38.8654 117.212C44.0729 113.732 50.1954 111.875 56.4584 111.875H64.3751V88.125L88.1251 64.375ZM88.1251 111.875V88.125H100H111.875V111.875H88.1251ZM56.4584 135.625H64.3751V143.542C64.3751 145.107 63.9108 146.638 63.0409 147.94C62.171 149.242 60.9346 150.257 59.488 150.856C58.0414 151.455 56.4496 151.612 54.914 151.306C53.3783 151.001 51.9677 150.247 50.8605 149.14C49.7533 148.032 48.9993 146.622 48.6939 145.086C48.3884 143.55 48.5452 141.959 49.1444 140.512C49.7436 139.066 50.7583 137.829 52.0602 136.959C53.3621 136.089 54.8927 135.625 56.4584 135.625ZM135.625 143.542V135.625H143.542C145.108 135.625 146.638 136.089 147.94 136.959C149.242 137.829 150.257 139.066 150.856 140.512C151.455 141.959 151.612 143.55 151.306 145.086C151.001 146.622 150.247 148.032 149.14 149.14C148.033 150.247 146.622 151.001 145.086 151.306C143.551 151.612 141.959 151.455 140.512 150.856C139.066 150.257 137.829 149.242 136.959 147.94C136.089 146.638 135.625 145.107 135.625 143.542ZM143.542 64.375H135.625V56.4583C135.625 54.8926 136.089 53.362 136.959 52.0601C137.829 50.7582 139.066 49.7435 140.512 49.1443C141.959 48.5451 143.551 48.3883 145.086 48.6938C146.622 48.9993 148.033 49.7532 149.14 50.8604C150.247 51.9676 151.001 53.3782 151.306 54.9139C151.612 56.4496 151.455 58.0413 150.856 59.4879C150.257 60.9345 149.242 62.1709 147.94 63.0408C146.638 63.9107 145.108 64.375 143.542 64.375Z" fill="#0F0F1A"/>
<path fill-rule="evenodd" clip-rule="evenodd" d="M36.2941 61.4412C36.2941 54.7718 38.9435 48.3755 43.6595 43.6595C48.3755 38.9435 54.7718 36.2941 61.4412 36.2941C68.1106 36.2941 74.5069 38.9435 79.2228 43.6595C83.9388 48.3755 86.5882 54.7718 86.5882 61.4412L61.4412 86.5882C54.7718 86.5882 48.3755 83.9388 43.6595 79.2228C38.9435 74.5069 36.2941 68.1106 36.2941 61.4412ZM66.6684 57.9484C67.3592 58.9823 67.728 60.1978 67.728 61.4412L61.4412 67.728C60.1978 67.728 58.9823 67.3592 57.9484 66.6684C56.9146 65.9776 56.1088 64.9958 55.633 63.847C55.1571 62.6983 55.0326 61.4342 55.2752 60.2147C55.5178 58.9952 56.1166 57.875 56.9958 56.9958C57.875 56.1166 58.9952 55.5178 60.2147 55.2752C61.4342 55.0326 62.6983 55.1571 63.847 55.633C64.9958 56.1088 65.9776 56.9146 66.6684 57.9484Z" fill="#6E56CF"/>
</svg>
