<svg width="200" height="200" viewBox="0 0 200 200" fill="none" xmlns="http://www.w3.org/2000/svg">
<rect width="200" height="200" rx="40" fill="white"/>
<path fill-rule="evenodd" clip-rule="evenodd" d="M90.332 21.9823C90.9928 21.6426 92.9492 21.007 94.6796 20.5701C98.7994 19.5298 104.176 19.933 108.659 21.6181C110.651 22.3671 119.03 27.3183 128.09 33.101C136.851 38.6922 146.206 44.6312 148.88 46.2984C154.553 49.8364 159.969 54.6818 161.859 57.9088C164.839 62.9957 164.845 63.0766 164.962 99.3472C165.059 129.767 165.105 134.354 163.333 138.079C162.984 138.811 162.565 139.51 162.063 140.366C158.846 145.844 156.48 147.559 120.037 170.811C107.812 178.611 106.773 179.053 100.815 178.996C95.3665 178.943 93.9611 178.405 85.2992 173.054C73.6515 165.859 60.7854 157.942 55.0363 154.432C43.4077 147.335 38.421 142.616 36.138 136.552C34.1669 131.316 34.3283 131.004 40.0878 128.923C44.3062 127.398 45.9084 126.796 46.7965 127.345C47.3672 127.698 47.643 128.527 48.1286 129.891C50.3013 135.998 51.4322 136.979 68.5024 147.563C71.3908 149.354 77.7029 153.33 82.5292 156.4C94.372 163.931 97.2903 165.337 101.086 165.337C105 165.337 108.046 163.823 120.379 155.75C125.609 152.326 133.035 147.518 136.88 145.065C140.726 142.612 145.296 139.289 147.035 137.681C148.255 136.553 149.185 135.772 149.895 134.826C152.31 131.607 152.17 126.476 152.17 99.2604C152.17 71.5097 152.227 67.1339 150.187 64.2241C149.744 63.5925 149.202 63.03 148.54 62.3125C146.333 59.9212 136.362 53.2143 114.045 39.1106C105.891 33.9575 104.264 33.2666 100.229 33.2476C96.3279 33.2286 93.2775 34.5257 86.4078 39.1247C83.7205 40.9233 75.0416 46.6615 67.1209 51.8759C52.5772 61.4506 50.7784 62.9843 49.2177 67.1394C48.9019 67.9796 48.6438 69.3787 48.6438 70.2476C48.6438 71.2934 48.2302 72.0912 47.421 72.6073C46.1847 73.3954 37.0249 76.7374 36.1011 76.7374C35.3419 76.7374 35.5163 68.1489 36.3385 65.0662C38.8357 55.7032 40.8508 53.8656 67.6644 36.5012C79.4707 28.8553 89.6712 22.3221 90.332 21.9823Z" fill="black"/>
<path fill-rule="evenodd" clip-rule="evenodd" d="M94.8366 57.0991C87.6594 60.0314 67.7453 72.9818 64.795 76.6354C60.9914 81.3462 60.5072 84.1955 60.7023 100.702L60.8713 115.027L62.6603 118.654C64.845 123.083 67.4671 125.42 77.1747 131.594C94.128 142.376 96.2067 143.309 102.134 142.798C107.215 142.36 108.638 141.601 128.802 128.578C133.119 125.79 136.863 122.127 138.605 118.987L140.214 116.085V99.8031V83.5215L138.689 80.2651C137.85 78.4742 136.505 76.3071 135.7 75.449C133.395 72.9932 113.449 60.0075 108.151 57.5148C104.968 56.0164 98.0174 55.7998 94.8366 57.0991ZM77.2437 83.7483C81.5184 79.9124 92.2705 73.2163 97.2821 71.269C99.3744 70.456 101.209 69.777 101.358 69.7608C102.009 69.6897 106.726 72.5346 115.069 78.0318C127.442 86.1835 126.9 85.1931 126.9 99.6674C126.9 112.566 126.834 112.823 122.737 115.869C118.412 119.084 108.666 125.442 105.371 127.198C101.674 129.168 100.303 129.225 96.7387 127.556C93.8079 126.183 83.9672 119.998 79.0061 116.411C74.3732 113.061 74.1857 112.406 74.1857 99.5681C74.1857 87.6456 74.4553 86.2503 77.2437 83.7483Z" fill="#6E56CF"/>
</svg>
